<svg width="14" height="16" viewBox="0 0 14 16" fill="none" xmlns="http://www.w3.org/2000/svg">
<path d="M11.6667 6.625H4.2C3.94228 6.625 3.73333 6.83488 3.73333 7.09375C3.73333 7.35262 3.94228 7.5625 4.2 7.5625H11.6667C11.9244 7.5625 12.1333 7.35262 12.1333 7.09375C12.1333 6.83488 11.9244 6.625 11.6667 6.625Z" fill="white" fill-opacity="0.6"/>
<path d="M4.2 8.5H11.6667C11.9244 8.5 12.1333 8.70988 12.1333 8.96875C12.1333 9.22762 11.9244 9.4375 11.6667 9.4375H4.2C3.94228 9.4375 3.73333 9.22762 3.73333 8.96875C3.73333 8.70988 3.94228 8.5 4.2 8.5Z" fill="white" fill-opacity="0.6"/>
<path d="M11.6667 10.375H4.2C3.94228 10.375 3.73333 10.5849 3.73333 10.8438C3.73333 11.1026 3.94228 11.3125 4.2 11.3125H11.6667C11.9244 11.3125 12.1333 11.1026 12.1333 10.8438C12.1333 10.5849 11.9244 10.375 11.6667 10.375Z" fill="white" fill-opacity="0.6"/>
<path d="M4.2 12.25H11.6667C11.9244 12.25 12.1333 12.4599 12.1333 12.7188C12.1333 12.9776 11.9244 13.1875 11.6667 13.1875H4.2C3.94228 13.1875 3.73333 12.9776 3.73333 12.7188C3.73333 12.4599 3.94228 12.25 4.2 12.25Z" fill="white" fill-opacity="0.6"/>
<path fill-rule="evenodd" clip-rule="evenodd" d="M12.6 1.875H12.1333V1.40625C12.1333 0.630844 11.5053 0 10.7333 0H1.4C0.62804 0 0 0.630844 0 1.40625V12.7188C0 13.4942 0.62804 14.125 1.4 14.125H1.86667V14.5938C1.86667 15.3692 2.49471 16 3.26667 16H12.6C13.372 16 14 15.3692 14 14.5938V3.28125C14 2.50584 13.372 1.875 12.6 1.875ZM2.27671 3.61272C2.01227 3.87831 1.86667 4.23144 1.86667 4.60706V13.1875H1.4C1.14268 13.1875 0.933333 12.9772 0.933333 12.7188V1.40625C0.933333 1.14778 1.14268 0.9375 1.4 0.9375H10.7333C10.9907 0.9375 11.2 1.14778 11.2 1.40625V1.875H4.58659C4.21263 1.875 3.86108 2.02128 3.59666 2.28688L2.27671 3.61272ZM4.66667 2.8125V4.6875H2.8V4.60706C2.8 4.48187 2.84853 4.36416 2.93667 4.27563L4.25662 2.94978C4.34476 2.86125 4.46196 2.8125 4.58659 2.8125H4.66667ZM13.0667 14.5938C13.0667 14.8522 12.8573 15.0625 12.6 15.0625H3.26667C3.00935 15.0625 2.8 14.8522 2.8 14.5938V5.625H5.13333C5.39106 5.625 5.6 5.41512 5.6 5.15625V2.8125H12.6C12.8573 2.8125 13.0667 3.02278 13.0667 3.28125V14.5938Z" fill="white" fill-opacity="0.6"/>
</svg>
