<svg width="23" height="11" viewBox="0 0 23 11" fill="none" xmlns="http://www.w3.org/2000/svg">
<path d="M0.781364 4.59972C0.834557 4.5912 0.88839 4.58728 0.942251 4.58796H20.1135L19.9135 4.49619C19.718 4.40491 19.5402 4.28067 19.388 4.1291L16.8161 1.5916C16.4774 1.27258 16.4205 0.759369 16.6813 0.375617C16.9848 -0.0333139 17.5668 -0.122103 17.9813 0.177332C18.0147 0.201537 18.0466 0.227921 18.0765 0.256314L22.7272 4.84493C23.0907 5.20312 23.091 5.78418 22.7279 6.14279L22.7272 6.1435L18.0765 10.7321C17.7127 11.09 17.1238 11.0892 16.7611 10.7303C16.7325 10.7021 16.7059 10.672 16.6813 10.6403C16.4205 10.2566 16.4774 9.74338 16.8161 9.42436L19.3833 6.88227C19.5198 6.74748 19.6767 6.63446 19.8484 6.5473L20.1274 6.42341H0.993437C0.518278 6.44082 0.1014 6.11333 0.0121365 5.65252C-0.0700932 5.15222 0.27429 4.68088 0.781364 4.59972Z" fill="var(--white-color)"/>
</svg>
