<svg width="16" height="16" viewBox="0 0 16 16" fill="none" xmlns="http://www.w3.org/2000/svg">
<path opacity="0.7" fill-rule="evenodd" clip-rule="evenodd" d="M8 0C10.1369 0 12.1458 0.832156 13.6568 2.34313C15.1678 3.85416 16 5.86312 16 8C16 10.1369 15.1678 12.1458 13.6568 13.6568C12.1458 15.1678 10.1369 16 8 16C5.86309 16 3.85413 15.1678 2.34313 13.6568C0.832125 12.1458 0 10.1369 0 8C0 5.86312 0.832125 3.85413 2.34313 2.34313C3.85409 0.832156 5.86309 0 8 0ZM0.9375 8C0.9375 11.8943 4.10572 15.0625 8 15.0625C11.8943 15.0625 15.0625 11.8943 15.0625 8C15.0625 4.10572 11.8943 0.9375 8 0.9375C4.10572 0.9375 0.9375 4.10572 0.9375 8ZM11.1592 5.43312C11.3422 5.25008 11.639 5.25008 11.822 5.43308C12.0051 5.61615 12.0051 5.91296 11.822 6.09599L7.35122 10.5668C7.25972 10.6583 7.13972 10.7041 7.01978 10.7041C6.89984 10.7041 6.77988 10.6583 6.68834 10.5668L4.17794 8.0564C3.99488 7.87333 3.99488 7.57652 4.17794 7.39349C4.361 7.21046 4.65781 7.21046 4.84084 7.39349L7.01981 9.57246L11.1592 5.43312Z" fill="var(--white-color)"/>
</svg>
