<svg width="30" height="14" viewBox="0 0 30 14" fill="none" xmlns="http://www.w3.org/2000/svg">
<path d="M0 2.8C0 1.2536 1.19391 0 2.66667 0H27.3333C28.8061 0 30 1.2536 30 2.8V11.2C30 12.7464 28.8061 14 27.3333 14H2.66667C1.19391 14 0 12.7464 0 11.2V2.8Z" fill="white" fill-opacity="0.4"/>
<path d="M5.67137 10.4874C5.33537 10.4874 5.02271 10.4874 4.73337 10.4874C4.44715 10.4874 4.18582 10.4874 3.94937 10.4874C3.71604 10.4874 3.51071 10.4874 3.33337 10.4874C3.33337 10.1117 3.33337 9.7475 3.33337 9.3947C3.33337 9.0419 3.33337 8.64663 3.33337 8.2089V5.8373C3.33337 5.3865 3.33337 4.9798 3.33337 4.6172C3.33337 4.2546 3.33337 3.8822 3.33337 3.5C3.70982 3.5 4.13293 3.5 4.60271 3.5C5.07249 3.5 5.54693 3.5 6.02604 3.5C6.48026 3.5 6.85982 3.5392 7.16471 3.6176C7.47271 3.69273 7.71693 3.80217 7.89737 3.9459C8.08093 4.08637 8.2116 4.2546 8.28937 4.4506C8.37026 4.6466 8.41071 4.86547 8.41071 5.1072C8.41071 5.40447 8.35782 5.66253 8.25204 5.8814C8.14626 6.10027 8.0016 6.28157 7.81804 6.4253C7.63449 6.56577 7.4276 6.66703 7.19737 6.7291V6.8516C7.46182 6.91367 7.69671 7.01003 7.90204 7.1407C8.11049 7.27137 8.27226 7.4494 8.38737 7.6748C8.50249 7.9002 8.56004 8.1844 8.56004 8.5274C8.56004 8.8214 8.51493 9.08927 8.42471 9.331C8.3376 9.56947 8.18515 9.77527 7.96737 9.9484C7.75271 10.1215 7.45871 10.2555 7.08537 10.3502C6.71204 10.4417 6.24071 10.4874 5.67137 10.4874ZM4.84071 9.2771H5.81137C6.07893 9.2771 6.29826 9.2428 6.46937 9.1742C6.6436 9.1056 6.77115 9.00597 6.85204 8.8753C6.93293 8.74463 6.97337 8.58293 6.97337 8.3902C6.97337 8.09947 6.88004 7.8855 6.69337 7.7483C6.50671 7.60783 6.2376 7.5376 5.88604 7.5376H4.47671V6.4057H5.82071C6.04782 6.4057 6.23604 6.36813 6.38537 6.293C6.53471 6.2146 6.64515 6.11007 6.71671 5.9794C6.79137 5.84873 6.82871 5.69683 6.82871 5.5237C6.82871 5.25257 6.75249 5.0484 6.60004 4.9112C6.4476 4.77073 6.21582 4.7005 5.90471 4.7005H4.84071C4.84071 4.9259 4.84071 5.1562 4.84071 5.3914C4.84071 5.6266 4.84071 5.89447 4.84071 6.195V7.861C4.84071 8.14193 4.84071 8.3951 4.84071 8.6205C4.84071 8.84263 4.84071 9.0615 4.84071 9.2771Z" fill="#4825C2"/>
<path d="M9.69973 10.4874C9.69973 10.1117 9.69973 9.7475 9.69973 9.3947C9.69973 9.0419 9.69973 8.64663 9.69973 8.2089V5.8373C9.69973 5.3865 9.69973 4.9798 9.69973 4.6172C9.69973 4.2546 9.69973 3.8822 9.69973 3.5H14.1191V4.8181C13.8328 4.8181 13.5248 4.8181 13.1951 4.8181C12.8684 4.8181 12.4826 4.8181 12.0377 4.8181H10.4697L11.2024 3.7548C11.2024 4.137 11.2024 4.5094 11.2024 4.872C11.2024 5.2346 11.2024 5.6413 11.2024 6.0921V7.9541C11.2024 8.38857 11.2024 8.78383 11.2024 9.1399C11.2024 9.4927 11.2024 9.85693 11.2024 10.2326L10.5677 9.1693H12.1497C12.5199 9.1693 12.87 9.1693 13.1997 9.1693C13.5326 9.1693 13.8531 9.1693 14.1611 9.1693V10.4874H9.69973ZM10.8524 7.5768V6.3518H12.0704C12.4811 6.3518 12.8326 6.3518 13.1251 6.3518C13.4175 6.3518 13.6991 6.3518 13.9697 6.3518V7.5768C13.6835 7.5768 13.3942 7.5768 13.1017 7.5768C12.8093 7.5768 12.4655 7.5768 12.0704 7.5768H10.8524Z" fill="#4825C2"/>
<path d="M17.0514 10.4874C17.0514 10.1117 17.0514 9.7475 17.0514 9.3947C17.0514 9.0419 17.0514 8.64663 17.0514 8.2089V6.0921C17.0514 5.6413 17.0514 5.2346 17.0514 4.872C17.0514 4.5094 17.0514 4.137 17.0514 3.7548L17.6301 4.9063H16.7481C16.3965 4.9063 16.0854 4.9063 15.8147 4.9063C15.5441 4.9063 15.2858 4.9063 15.0401 4.9063V3.5H20.5887V4.9063C20.3461 4.9063 20.0894 4.9063 19.8187 4.9063C19.5481 4.9063 19.2354 4.9063 18.8807 4.9063H17.9987L18.5821 3.7548C18.5821 4.137 18.5821 4.5094 18.5821 4.872C18.5821 5.2346 18.5821 5.6413 18.5821 6.0921V8.2089C18.5821 8.64663 18.5821 9.0419 18.5821 9.3947C18.5821 9.7475 18.5821 10.1117 18.5821 10.4874H17.0514Z" fill="#4825C2"/>
<path d="M20.4256 10.4874C20.5438 10.1117 20.6667 9.71647 20.7943 9.3016C20.925 8.88673 21.0478 8.4931 21.163 8.1207L21.9143 5.7246C22.0481 5.29013 22.1694 4.89977 22.2783 4.5535C22.3872 4.20397 22.4961 3.8528 22.605 3.5H24.5836C24.6956 3.86587 24.8045 4.22193 24.9103 4.5682C25.0192 4.91447 25.1405 5.29993 25.2743 5.7246L26.0163 8.1256C26.1376 8.51107 26.2605 8.90797 26.385 9.3163C26.5125 9.72463 26.6338 10.115 26.749 10.4874H25.1623C25.0627 10.115 24.9601 9.73443 24.8543 9.3457C24.7485 8.9537 24.6474 8.58293 24.551 8.2334L23.6363 4.8671H23.5243L22.6003 8.1991C22.5007 8.5617 22.395 8.94227 22.283 9.3408C22.1741 9.73607 22.0683 10.1183 21.9656 10.4874H20.4256ZM22.031 9.0272L22.1943 7.8218H25.167L25.2976 9.0272H22.031Z" fill="#4825C2"/>
</svg>
