<svg width="11" height="12" viewBox="0 0 11 12" fill="none" xmlns="http://www.w3.org/2000/svg">
<path d="M5.49998 4.24859L1.59153 0.298242C1.27256 -0.0407777 0.759381 -0.097754 0.375592 0.163263C-0.0333436 0.467035 -0.122089 1.04958 0.17735 1.46447C0.20152 1.49798 0.227887 1.52984 0.256329 1.55978L4.25462 5.61593L0.256329 9.67208C0.227887 9.70202 0.20152 9.73388 0.17735 9.76739C-0.122089 10.1823 -0.0333436 10.7648 0.375592 11.0686C0.759381 11.3296 1.27256 11.2726 1.59153 10.9336L5.49998 6.98327L9.4243 10.9336C9.74339 11.2726 10.2566 11.3296 10.6404 11.0686C10.672 11.044 10.702 11.0173 10.7303 10.9887C11.0892 10.6256 11.0899 10.0362 10.732 9.67208L6.73387 5.61593L10.732 1.55978C11.0899 1.1957 11.0892 0.606225 10.7303 0.243127C10.702 0.214563 10.672 0.18786 10.6404 0.163263C10.2566 -0.097754 9.74339 -0.0407777 9.4243 0.298242L5.49998 4.24859Z" fill="#6d51ce"/>
</svg>
