<svg width="12" height="12" viewBox="0 0 12 12" fill="none" xmlns="http://www.w3.org/2000/svg">
<path d="M1.2589 11.8446C1.29644 11.8167 1.33155 11.7854 1.36384 11.7513L10.5681 2.6288L10.5032 2.81238C10.4408 2.99282 10.4093 3.18316 10.4103 3.37483L10.412 9.59828C10.4029 10.0132 10.6845 10.375 11.0793 10.4555C11.5155 10.5253 11.9236 10.2172 11.9908 9.7673C11.9963 9.73094 11.9993 9.69424 12 9.65746L11.9969 0.828428C11.9969 0.373144 11.6391 0.00367376 11.1977 0.0031711L2.54565 0C2.10428 0.000389901 1.74716 0.369769 1.748 0.825053C1.74807 0.860883 1.7504 0.896678 1.75498 0.932201C1.83307 1.3394 2.18383 1.6299 2.58607 1.62049L8.71118 1.62808C8.8771 1.62826 9.04201 1.60181 9.19997 1.54966L9.44574 1.45362L0.264065 10.5528C-0.0351912 10.8393 -0.086564 11.3085 0.143146 11.6573C0.401459 12.0268 0.900981 12.1106 1.2589 11.8446Z" fill="white" fill-opacity="0.7"/>
</svg>
