<svg width="11" height="12" viewBox="0 0 11 12" fill="none" xmlns="http://www.w3.org/2000/svg">
<path d="M9.87174 11.1299C10.1298 11.4016 10.5481 11.4016 10.8062 11.1299C11.0642 10.8582 11.0642 10.4178 10.8062 10.1461L6.8685 6.00033L10.8062 1.85454C11.0642 1.58288 11.0642 1.14241 10.8062 0.870744C10.5481 0.599075 10.1298 0.599075 9.87174 0.870744L4.99968 6.00033L9.87174 11.1299Z" fill="#6d51ce"/>
<path d="M5.53808 11.1299C5.79611 11.4016 6.21446 11.4016 6.47249 11.1299C6.73052 10.8582 6.73052 10.4178 6.47249 10.1461L2.53484 6.00033L6.47249 1.85454C6.73053 1.58288 6.73053 1.14241 6.47249 0.870744C6.21446 0.599075 5.79611 0.599075 5.53808 0.870744L0.666016 6.00033L5.53808 11.1299Z" fill="#6d51ce"/>
</svg>
