<svg width="16" height="15" viewBox="0 0 16 15" fill="none" xmlns="http://www.w3.org/2000/svg">
<path opacity="0.7" d="M14.8859 2.84753H11.9025V1.18872C11.9025 0.533325 11.3679 0 10.7109 0H5.22656C4.56958 0 4.03503 0.533325 4.03503 1.18872V2.84753H1.11414C0.499756 2.84753 0 3.34741 0 3.96167V13.5734C0 14.1877 0.499756 14.6875 1.11414 14.6875H14.8859C15.5002 14.6875 16 14.1877 16 13.5734V3.96167C16 3.34741 15.5002 2.84753 14.8859 2.84753ZM4.97253 1.18872C4.97253 1.05017 5.08643 0.9375 5.22656 0.9375H10.7109C10.851 0.9375 10.965 1.05017 10.965 1.18872V2.84753H4.97253V1.18872ZM1.11414 3.78503H14.8859C14.9833 3.78503 15.0625 3.86426 15.0625 3.96167V7.18127H13.3217V6.71021C13.3217 6.2135 12.9176 5.80945 12.421 5.80945H11.004C10.5073 5.80945 10.1034 6.2135 10.1034 6.71021V7.18127H5.83411V6.71021C5.83411 6.2135 5.43005 5.80945 4.93347 5.80945H3.51648C3.0199 5.80945 2.61584 6.2135 2.61584 6.71021V7.18127H0.9375V3.96167C0.9375 3.86426 1.01672 3.78503 1.11414 3.78503ZM11.0409 6.74695H12.3842V9.17529H11.0409V6.74695ZM3.55334 6.74695H4.89661V9.17529H3.55334V6.74695ZM14.8859 13.75H1.11414C1.01672 13.75 0.9375 13.6708 0.9375 13.5734V8.11877H2.61584V9.21216C2.61584 9.70874 3.0199 10.1128 3.51648 10.1128H4.93347C5.43018 10.1128 5.83411 9.70874 5.83411 9.21216V8.11877H10.1033V9.21216C10.1033 9.70874 10.5073 10.1128 11.004 10.1128H12.421C12.9176 10.1128 13.3217 9.70874 13.3217 9.21216V8.11877H15.0625V13.5734C15.0625 13.6708 14.9833 13.75 14.8859 13.75Z" fill="var(--white-color)"/>
</svg>
