<svg width="16" height="16" viewBox="0 0 16 16" fill="none" xmlns="http://www.w3.org/2000/svg">
<path opacity="0.7" d="M0.20135 7.4571L3.28188 4.37657C3.55027 4.10811 3.98554 4.10811 4.25401 4.37657C4.52247 4.64504 4.52247 5.08024 4.25401 5.3487L2.34694 7.25585H6.91316V0.687396C6.91316 0.307724 7.22088 0 7.60056 0H15.3126C15.6923 0 16 0.307724 16 0.687396V15.1991C16 15.5788 15.6923 15.8865 15.3126 15.8865H7.60056C7.22088 15.8865 6.91316 15.5788 6.91316 15.1991V8.63064H2.34694L4.25401 10.5378C4.52247 10.8062 4.52247 11.2414 4.25401 11.5099C4.11981 11.6442 3.94384 11.7112 3.76794 11.7112C3.59205 11.7112 3.41615 11.6441 3.28188 11.5099L0.20135 8.42938C-0.0671158 8.16076 -0.0671158 7.72557 0.20135 7.4571ZM8.28795 14.5116H14.6252V1.37472H8.28795V7.25577H11.974C12.3537 7.25577 12.6614 7.56349 12.6614 7.94316C12.6614 8.32284 12.3537 8.63056 11.974 8.63056H8.28795V14.5116Z" fill="white"/>
</svg>
