<svg viewBox="0 0 16 16" fill="none" xmlns="http://www.w3.org/2000/svg">
<path fill-rule="evenodd" clip-rule="evenodd" d="M12.2438 0.214975C11.7655 -0.0611674 11.1539 0.102708 10.8777 0.581001L9.916 2.24679C9.30006 2.08705 8.65889 2 8 2C3.99536 2 1.11682 5.13269 0.0604248 7.35681C-0.0201416 7.52649 -0.0201416 7.72351 0.0604248 7.89319C0.878076 9.61458 2.33223 11.2325 4.15183 12.2306L3.35881 13.6042C3.08267 14.0825 3.24655 14.6941 3.72484 14.9702C4.20313 15.2463 4.81472 15.0825 5.09086 14.6042L6.02427 12.9875C6.65845 13.1572 7.31979 13.25 8 13.25C12.0046 13.25 14.8832 10.1172 15.9396 7.89319C16.0201 7.72351 16.0201 7.52649 15.9396 7.35681C15.1141 5.61895 13.6399 3.9865 11.7958 2.99087L12.6098 1.581C12.8859 1.10271 12.7221 0.491117 12.2438 0.214975ZM9.26494 3.37446C8.85556 3.29298 8.43335 3.25 8 3.25C5.11328 3.25 2.72742 5.15772 1.33289 7.625C2.16568 9.09828 3.3475 10.3665 4.77427 11.1525L5.63367 9.664C5.1611 9.11632 4.875 8.40345 4.875 7.625C4.875 5.90186 6.27686 4.5 8 4.5C8.19938 4.5 8.39446 4.51877 8.58357 4.55463L9.26494 3.37446ZM10.3248 5.53879L11.1734 4.0689C12.6236 4.85253 13.8242 6.13364 14.6671 7.625C13.2726 10.0922 10.8867 12 8 12C7.54489 12 7.10206 11.9526 6.67349 11.863L7.35474 10.683C7.56301 10.7269 7.77886 10.75 8 10.75C9.72314 10.75 11.125 9.34815 11.125 7.625C11.125 6.82399 10.8221 6.09241 10.3248 5.53879ZM7.89164 5.7531C6.90804 5.80942 6.125 6.62744 6.125 7.625C6.125 7.92753 6.19703 8.21356 6.32485 8.46685L7.89164 5.7531ZM8.03798 9.49962L9.64229 6.72087C9.79056 6.98914 9.875 7.29739 9.875 7.625C9.875 8.64613 9.05445 9.47933 8.03798 9.49962Z" fill="#D3D3D3"/>
</svg>
