<svg viewBox="0 0 16 12" fill="none" xmlns="http://www.w3.org/2000/svg">
<path d="M15.9396 5.35681C14.6016 2.53992 11.5591 0 8 0C3.99536 0 1.11682 3.13269 0.0604248 5.35681C-0.0201416 5.52649 -0.0201416 5.72351 0.0604248 5.89319C1.39844 8.71008 4.44092 11.25 8 11.25C12.0046 11.25 14.8832 8.11719 15.9396 5.89319C16.0201 5.72351 16.0201 5.52649 15.9396 5.35681ZM8 10C5.12061 10 2.73328 8.10242 1.33289 5.625C2.72742 3.15771 5.11328 1.25 8 1.25C10.8792 1.25 13.2667 3.14734 14.6671 5.625C13.2726 8.09216 10.8867 10 8 10ZM8 2.5C6.27686 2.5 4.875 3.90186 4.875 5.625C4.875 7.34814 6.27686 8.75 8 8.75C9.72314 8.75 11.125 7.34814 11.125 5.625C11.125 3.90186 9.72314 2.5 8 2.5ZM8 7.5C6.96619 7.5 6.125 6.65881 6.125 5.625C6.125 4.59106 6.96619 3.75 8 3.75C9.03394 3.75 9.875 4.59106 9.875 5.625C9.875 6.65881 9.03394 7.5 8 7.5Z" fill="#D3D3D3"/>
</svg>
