<svg width="29" height="10" viewBox="0 0 29 10" fill="none" xmlns="http://www.w3.org/2000/svg">
<path fill-rule="evenodd" clip-rule="evenodd" d="M8.47618 0C6.06385 0 4.04502 1.7172 3.57787 3.99341H1.49433C1.07878 3.99341 0.715672 4.27332 0.609821 4.67485L0.0305282 6.87002C-0.0984342 7.35877 0.193035 7.85875 0.681455 7.98771C0.759819 8.00874 0.838464 8.01851 0.915595 8.01851C1.32077 8.01851 1.69122 7.74717 1.79948 7.33678L2.19888 5.82272H3.54369C3.93712 8.18978 5.99922 10 8.47618 10C10.9532 10 13.0153 8.18981 13.4087 5.82272H15.3124C15.7058 8.18978 17.7679 10 20.2449 10C22.7218 10 24.7836 8.18987 25.1771 5.82284H26.5222L26.9219 7.33723C27.0298 7.74729 27.4003 8.01868 27.8055 8.01868C27.8826 8.01868 27.9612 8.00864 28.0393 7.9876C28.5277 7.85847 28.8192 7.35816 28.6902 6.86974L28.1109 4.67457C28.0051 4.27305 27.642 3.99347 27.2267 3.99347H25.1429C24.6759 1.7172 22.6572 0 20.2449 0C17.8325 0 15.8137 1.7172 15.3465 3.99341H13.3745C12.9074 1.71716 10.8886 0 8.47618 0ZM8.47618 8.17041C6.72798 8.17041 5.30536 6.74812 5.30536 4.99986C5.30536 3.2516 6.72798 1.82903 8.47618 1.82903C10.2244 1.82903 11.647 3.25132 11.647 4.99986C11.647 6.74806 10.2247 8.17041 8.47618 8.17041ZM20.2449 8.17041C18.4967 8.17041 17.074 6.74812 17.074 4.99986C17.074 3.2516 18.4967 1.82903 20.2449 1.82903C21.9934 1.82903 23.4157 3.25132 23.4154 4.99986C23.4154 6.74806 21.9931 8.17041 20.2449 8.17041Z" fill="white"/>
</svg>
