<svg width="16" height="16" viewBox="0 0 16 16" fill="none" xmlns="http://www.w3.org/2000/svg">
<path d="M9.17859 6.07527C9.17859 5.46592 8.77175 5.10468 8.09452 5.10468C7.32221 5.10468 7.12404 5.53064 6.93962 5.92702C6.77911 6.27204 6.62902 6.59467 6.11979 6.5945C5.72462 6.5945 5.38565 6.35733 5.38565 5.90597C5.38565 4.79928 6.65069 3.81702 8.02739 3.81702C9.47269 3.81702 10.8946 4.48366 10.8946 6.0749C10.8946 7.10038 10.0735 7.68496 9.45553 8.12493C9.18889 8.31476 8.96006 8.47767 8.85129 8.63747C8.77344 8.75106 8.72538 8.87764 8.67877 9.00039C8.56308 9.30509 8.45634 9.58616 7.92522 9.58616C7.43957 9.58616 7.20312 9.19137 7.20312 8.83013C7.20312 8.12608 7.74593 7.70727 8.26247 7.30872C8.73135 6.94693 9.17859 6.60185 9.17859 6.07527Z" fill="white" fill-opacity="0.7"/>
<path d="M7.97042 10.3207C8.47833 10.3207 8.89613 10.7381 8.89613 11.2464C8.89613 11.7547 8.47833 12.1721 7.97042 12.1721C7.4625 12.1721 7.04472 11.7547 7.04472 11.2464C7.04472 10.7388 7.4625 10.3207 7.97042 10.3207Z" fill="white" fill-opacity="0.7"/>
<path fill-rule="evenodd" clip-rule="evenodd" d="M7.99999 0C3.58826 0 0 3.58827 0 8C0 12.4117 3.58826 16 7.99999 16C12.4117 16 16 12.4121 16 8C16 3.58827 12.4117 0 7.99999 0ZM1.35948 8C1.35948 4.33909 4.33908 1.35948 7.99999 1.35948C11.6609 1.35948 14.6405 4.33909 14.6405 8C14.6405 11.6613 11.6609 14.6405 7.99999 14.6405C4.33908 14.6405 1.35948 11.6609 1.35948 8Z" fill="white" fill-opacity="0.7"/>
</svg>
