<svg width="16" height="16" viewBox="0 0 16 16" fill="none" xmlns="http://www.w3.org/2000/svg">
<path opacity="0.7" fill-rule="evenodd" clip-rule="evenodd" d="M0 7.99977C0 3.58869 3.58876 0 7.99992 0C12.411 0 15.9997 3.58869 15.9997 7.99977C15.9997 12.4111 12.411 16 7.99992 16C3.58876 16 0 12.4112 0 7.99977ZM1.14679 7.99977C1.14679 11.7787 4.2211 14.8532 7.99992 14.8532C11.7787 14.8532 14.8529 11.7787 14.8529 7.99977C14.8529 4.22102 11.7787 1.14679 7.99992 1.14679C4.2211 1.14679 1.14679 4.22102 1.14679 7.99977ZM8.3539 7.86589H12.1134C12.43 7.86589 12.6868 8.12261 12.6868 8.43928C12.6868 8.75595 12.4301 9.01268 12.1134 9.01268H7.78051C7.46384 9.01268 7.20711 8.75595 7.20711 8.43928V3.75641C7.20711 3.43974 7.46384 3.18301 7.78051 3.18301C8.09725 3.18301 8.3539 3.43974 8.3539 3.75641V7.86589Z" fill="white"/>
</svg>
