<svg viewBox="0 0 16 16" xmlns="http://www.w3.org/2000/svg">
<path fill-rule="evenodd" clip-rule="evenodd" d="M8 0C3.5888 0 0 3.58885 0 8.00005C0 12.4112 3.5888 16 8 16C12.4112 16 16 12.4112 16 8.00005C16 3.58885 12.4112 0 8 0ZM8 14.5455C4.39079 14.5455 1.45455 11.6092 1.45455 8.00005C1.45455 4.39088 4.39079 1.45455 8 1.45455C11.6092 1.45455 14.5455 4.39088 14.5455 8.00005C14.5455 11.6092 11.6092 14.5455 8 14.5455ZM8.00075 3.39408C7.46616 3.39408 7.03125 3.82928 7.03125 4.36421C7.03125 4.89866 7.46616 5.33347 8.00075 5.33347C8.53535 5.33347 8.97026 4.89866 8.97026 4.36421C8.97026 3.82928 8.53535 3.39408 8.00075 3.39408ZM7.27344 7.51536C7.27344 7.11371 7.59906 6.78809 8.00071 6.78809C8.40236 6.78809 8.72798 7.11371 8.72798 7.51536V11.879C8.72798 12.2806 8.40236 12.6063 8.00071 12.6063C7.59906 12.6063 7.27344 12.2806 7.27344 11.879V7.51536Z" fill="white" fill-opacity="0.7"/>
</svg>
