<svg width="51" height="40" viewBox="0 0 51 40" fill="none" xmlns="http://www.w3.org/2000/svg">
<path fill-rule="evenodd" clip-rule="evenodd" d="M50.9995 22L51 20L51 18.8712L50.9991 17.7035L50.9973 16.9548L50.9944 16.357L50.9905 15.8444L50.9855 15.3887L50.9796 14.9743L50.9726 14.5918L50.9646 14.2349L50.9556 13.8991L50.9455 13.5812L50.9344 13.2786L50.9223 12.9893L50.9092 12.7119L50.895 12.4449L50.8798 12.1875L50.8636 11.9387L50.8463 11.6977L50.828 11.4639L50.8087 11.2367L50.7883 11.0158L50.767 10.8005L50.7445 10.5907L50.7211 10.3859L50.6966 10.1858L50.671 9.9902L50.6445 9.79885L50.6168 9.61152L50.5882 9.42803L50.5584 9.24818L50.5277 9.07182L50.4959 8.8988L50.463 8.72898L50.4291 8.56224L50.3941 8.39846L50.3581 8.23752L50.3211 8.07935L50.2829 7.92383L50.2437 7.77089L50.2034 7.62044L50.1621 7.4724L50.1197 7.32672L50.0762 7.18332L50.0316 7.04214L49.986 6.90312L49.9393 6.76621L49.8915 6.63136L49.8426 6.49851L49.7926 6.36763L49.7415 6.23867L49.6893 6.11159L49.636 5.98634L49.5816 5.86291L49.5261 5.74124L49.4695 5.6213L49.4118 5.50308L49.3529 5.38653L49.2929 5.27162L49.2318 5.15834L49.1695 5.04665L49.1061 4.93653L49.0415 4.82796L48.9758 4.72091L48.9089 4.61537L48.8409 4.5113L48.7717 4.40871L48.7013 4.30756L48.6297 4.20783L48.5569 4.10952L48.483 4.0126L48.4078 3.91706L48.3314 3.82288L48.2538 3.73005L48.1749 3.63856L48.0948 3.54839L48.0135 3.45953L47.9309 3.37196L47.847 3.28569L47.7619 3.20068L47.6754 3.11695L47.5877 3.03446L47.4987 2.95322L47.4083 2.87321L47.3166 2.79442L47.2235 2.71686L47.1291 2.64049L47.0333 2.56533L46.9362 2.49136L46.8376 2.41857L46.7376 2.34695L46.6362 2.27651L46.5333 2.20723L46.4289 2.1391L46.3231 2.07212L46.2157 2.00628L46.1068 1.94158L45.9964 1.87801L45.8844 1.81556L45.7707 1.75423L45.6555 1.69402L45.5386 1.63492L45.4201 1.57693L45.2998 1.52003L45.1778 1.46423L45.0541 1.40952L44.9286 1.3559L44.8012 1.30336L44.6719 1.2519L44.5408 1.20152L44.4077 1.15221L44.2726 1.10397L44.1355 1.05679L43.9963 1.01067L43.8549 0.965618L43.7114 0.921618L43.5657 0.87867L43.4176 0.836773L43.2671 0.795924L43.1142 0.756119L42.9588 0.717357L42.8008 0.679635L42.6401 0.64295L42.4766 0.607301L42.3103 0.572685L42.141 0.539101L41.9686 0.506545L41.7929 0.475017L41.6139 0.444515L41.4315 0.415036L41.2453 0.386579L41.0553 0.359143L40.8613 0.332726L40.663 0.307326L40.4603 0.282943L40.2528 0.259574L40.0404 0.237219L39.8225 0.215876L39.599 0.195544L39.3694 0.176222L39.1331 0.157909L38.8898 0.140605L38.6387 0.124307L38.3792 0.109016L38.1104 0.0947307L37.8313 0.0814499L37.5408 0.0691733L37.2373 0.0579002L36.9191 0.04763L36.5838 0.0383623L36.2285 0.0300964L35.8492 0.0228321L35.4405 0.0165689L34.9943 0.0113066L34.4979 0.00704483L33.9297 0.00378343L33.2448 0.00152223L32.3141 0.000261103L19.4712 0L18.1932 0.000738904L17.4088 0.00247785L16.7878 0.00521693L16.2576 0.00895627L15.7872 0.0136961L15.3601 0.0194366L14.9662 0.026178L14.599 0.0339208L14.2537 0.0426653L13.9269 0.052412L13.616 0.0631613L13.3189 0.0749138L13.034 0.0876701L12.7599 0.101431L12.4957 0.116197L12.2403 0.131969L11.993 0.148747L11.7531 0.166533L11.5201 0.185328L11.2934 0.205132L11.0727 0.225947L10.8575 0.247774L10.6474 0.270613L10.4422 0.294467L10.2417 0.319335L10.0455 0.345221L9.85341 0.372125L9.66528 0.400048L9.4809 0.428993L9.30009 0.458961L9.12273 0.489953L8.94865 0.521972L8.77773 0.555019L8.60984 0.589096L8.44489 0.624205L8.28276 0.660349L8.12336 0.697529L7.9666 0.735748L7.8124 0.775008L7.66068 0.815311L7.51137 0.856661L7.3644 0.899059L7.21971 0.942509L7.07724 0.987013L6.93693 1.03258L6.79873 1.0792L6.66259 1.12688L6.52846 1.17563L6.3963 1.22546L6.26607 1.27635L6.13773 1.32833L6.01123 1.38138L5.88655 1.43552L5.76365 1.49075L5.64249 1.54708L5.52306 1.6045L5.40531 1.66302L5.28922 1.72265L5.17476 1.7834L5.06192 1.84526L4.95066 1.90824L4.84097 1.97235L4.73281 2.03759L4.62617 2.10398L4.52104 2.1715L4.41738 2.24018L4.31519 2.31002L4.21444 2.38103L4.11512 2.4532L4.01722 2.52655L3.92071 2.60109L3.82558 2.67683L3.73182 2.75377L3.63941 2.83192L3.54835 2.91128L3.45862 2.99188L3.3702 3.07372L3.28309 3.1568L3.19727 3.24114L3.11274 3.32675L3.02948 3.41364L2.94748 3.50182L2.86674 3.59131L2.78724 3.68211L2.70898 3.77424L2.63195 3.86771L2.55613 3.96253L2.48153 4.05873L2.40813 4.15632L2.33593 4.2553L2.26492 4.35571L2.19509 4.45755L2.12643 4.56084L2.05895 4.66561L1.99263 4.77187L1.92747 4.87964L1.86345 4.98895L1.80059 5.09982L1.73887 5.21226L1.67828 5.32632L1.61883 5.44201L1.5605 5.55936L1.50329 5.67839L1.44721 5.79915L1.39223 5.92166L1.33837 6.04596L1.28561 6.17207L1.23395 6.30005L1.18338 6.42992L1.13392 6.56174L1.08554 6.69553L1.03825 6.83136L0.992046 6.96928L0.946922 7.10932L0.902877 7.25155L0.859906 7.39604L0.818007 7.54284L0.777179 7.69202L0.737417 7.84365L0.69872 7.99781L0.661086 8.15459L0.624511 8.31407L0.588994 8.47635L0.554534 8.64153L0.521127 8.80973L0.488771 8.98106L0.457465 9.15566L0.427208 9.33366L0.397997 9.51523L0.36983 9.70054L0.342707 9.88977L0.316626 10.0831L0.291583 10.2808L0.267581 10.4831L0.244616 10.6903L0.222686 10.9027L0.201792 11.1206L0.181932 11.3445L0.163106 11.5747L0.14531 11.8119L0.128547 12.0565L0.112813 12.3094L0.0981083 12.5712L0.0844326 12.843L0.071784 13.1259L0.0601635 13.4214L0.0495701 13.7311L0.0400019 14.0572L0.0314589 14.4026L0.023942 14.7711L0.0174494 15.1678L0.011981 15.6005L0.00753689 16.0809L0.00411797 16.6293L0.00172138 17.2866L0.000349045 18.1662L0 20.7981L0.000674248 22.1533L0.0023737 22.9388L0.00509548 23.5546L0.00884151 24.0783L0.0136108 24.5418L0.0194054 24.962L0.0262251 25.3491L0.0340691 25.7097L0.0429382 26.0486L0.0528326 26.3692L0.0637541 26.6742L0.0757017 26.9654L0.0886774 27.2447L0.10268 27.5132L0.117713 27.7721L0.133775 28.0222L0.150867 28.2644L0.16899 28.4993L0.188147 28.7275L0.208336 28.9494L0.229559 29.1655L0.251818 29.3762L0.275114 29.5818L0.299447 29.7826L0.32482 29.9789L0.351233 30.1709L0.378689 30.3589L0.407188 30.543L0.436732 30.7234L0.467323 30.9003L0.498963 31.0738L0.531653 31.2442L0.565396 31.4114L0.600193 31.5756L0.636046 31.737L0.672958 31.8956L0.710931 32.0516L0.749967 32.2049L0.790068 32.3557L0.831237 32.5042L0.873477 32.6502L0.91679 32.794L0.961179 32.9355L1.00665 33.0749L1.0532 33.2121L1.10083 33.3473L1.14956 33.4804L1.19937 33.6116L1.25028 33.7409L1.30229 33.8683L1.3554 33.9938L1.40962 34.1175L1.46495 34.2395L1.52139 34.3597L1.57896 34.4782L1.63764 34.595L1.69746 34.7102L1.75841 34.8237L1.82049 34.9356L1.88372 35.046L1.9481 35.1548L2.01363 35.2621L2.08032 35.3679L2.14817 35.4722L2.2172 35.575L2.28741 35.6764L2.3588 35.7764L2.43138 35.8749L2.50516 35.972L2.58015 36.0678L2.65635 36.1622L2.73378 36.2552L2.81243 36.3469L2.89232 36.4373L2.97346 36.5264L3.05586 36.6142L3.13953 36.7006L3.22447 36.7858L3.3107 36.8698L3.39822 36.9525L3.48706 37.0339L3.57721 37.1141L3.6687 37.1931L3.76154 37.2708L3.85573 37.3474L3.9513 37.4228L4.04825 37.4969L4.14661 37.5699L4.24638 37.6417L4.34758 37.7123L4.45024 37.7818L4.55437 37.8501L4.65998 37.9173L4.76709 37.9833L4.87574 38.0482L4.98593 38.1119L5.09769 38.1745L5.21105 38.236L5.32602 38.2964L5.44263 38.3557L5.56091 38.4139L5.68089 38.471L5.8026 38.5269L5.92607 38.5818L6.05132 38.6356L6.17841 38.6883L6.30735 38.74L6.43819 38.7905L6.57097 38.84L6.70573 38.8884L6.84252 38.9357L6.98139 38.982L7.12239 39.0273L7.26556 39.0714L7.41096 39.1145L7.55867 39.1566L7.70874 39.1976L7.86124 39.2376L8.01625 39.2765L8.17384 39.3144L8.3341 39.3513L8.49712 39.3871L8.66299 39.4218L8.83183 39.4556L9.00375 39.4883L9.17886 39.52L9.35731 39.5507L9.53923 39.5803L9.72479 39.6089L9.91415 39.6365L10.1075 39.6631L10.3051 39.6887L10.5071 39.7132L10.7138 39.7367L10.9254 39.7593L11.1424 39.7808L11.365 39.8013L11.5936 39.8207L11.8288 39.8392L12.0709 39.8567L12.3207 39.8731L12.5789 39.8886L12.8461 39.903L13.1235 39.9165L13.4121 39.9289L13.7134 39.9403L14.0292 39.9508L14.3616 39.9602L14.7134 39.9686L15.0885 39.9761L15.4921 39.9825L15.9317 39.9879L16.4189 39.9923L16.9736 39.9957L17.635 39.9982L18.5079 39.9996L21.0495 40L32.6553 39.9994L33.4803 39.9978L34.1205 39.9953L34.6625 39.9917L35.1411 39.9871L35.5743 39.9815L35.9729 39.9749L36.3441 39.9674L36.6926 39.9588L37.0222 39.9492L37.3355 39.9386L37.6347 39.927L37.9214 39.9144L38.1971 39.9008L38.4628 39.8862L38.7196 39.8706L38.9681 39.854L39.2091 39.8363L39.4432 39.8177L39.6708 39.7981L39.8925 39.7774L40.1086 39.7557L40.3195 39.7331L40.5254 39.7094L40.7267 39.6847L40.9235 39.6589L41.1163 39.6322L41.305 39.6044L41.49 39.5757L41.6713 39.5459L41.8492 39.515L42.0238 39.4832L42.1953 39.4503L42.3636 39.4164L42.529 39.3814L42.6916 39.3455L42.8514 39.3084L43.0086 39.2704L43.1632 39.2313L43.3153 39.1912L43.465 39.15L43.6123 39.1077L43.7574 39.0645L43.9002 39.0201L44.0409 38.9747L44.1794 38.9283L44.3159 38.8808L44.4503 38.8322L44.5828 38.7825L44.7133 38.7318L44.8419 38.68L44.9687 38.6271L45.0937 38.5731L45.2169 38.5181L45.3383 38.4619L45.458 38.4047L45.576 38.3464L45.6924 38.2869L45.8071 38.2263L45.9202 38.1646L46.0317 38.1018L46.1417 38.0379L46.2501 37.9729L46.3569 37.9066L46.4623 37.8393L46.5662 37.7708L46.6686 37.7012L46.7696 37.6303L46.8691 37.5583L46.9673 37.4852L47.064 37.4108L47.1593 37.3353L47.2533 37.2585L47.3459 37.1806L47.4372 37.1014L47.5272 37.021L47.6158 36.9394L47.7031 36.8565L47.7891 36.7724L47.8739 36.6869L47.9573 36.6003L48.0395 36.5123L48.1205 36.423L48.2002 36.3324L48.2786 36.2405L48.3559 36.1472L48.4319 36.0526L48.5067 35.9567L48.5802 35.8593L48.6526 35.7605L48.7238 35.6604L48.7939 35.5587L48.8627 35.4557L48.9304 35.3512L48.9969 35.2451L49.0622 35.1376L49.1264 35.0285L49.1895 34.9179L49.2514 34.8057L49.3121 34.6919L49.3718 34.5765L49.4303 34.4594L49.4877 34.3407L49.5439 34.2202L49.5991 34.0979L49.6531 33.9739L49.7061 33.8481L49.7579 33.7204L49.8086 33.5909L49.8583 33.4594L49.9068 33.3259L49.9543 33.1904L50.0007 33.0528L50.046 32.9131L50.0902 32.7712L50.1333 32.6271L50.1754 32.4807L50.2164 32.3319L50.2563 32.1806L50.2952 32.0269L50.333 31.8705L50.3697 31.7115L50.4054 31.5497L50.44 31.385L50.4736 31.2172L50.5061 31.0464L50.5376 30.8724L50.568 30.6949L50.5974 30.5139L50.6257 30.3292L50.653 30.1406L50.6793 29.9479L50.7045 29.7509L50.7287 29.5494L50.7518 29.343L50.7739 29.1315L50.7949 28.9145L50.815 28.6916L50.834 28.4624L50.8519 28.2264L50.8688 27.9829L50.8847 27.7314L50.8996 27.4711L50.9134 27.2009L50.9263 26.9199L50.938 26.6266L50.9488 26.3193L50.9585 25.9959L50.9672 25.6538L50.9749 25.2893L50.9816 24.8975L50.9872 24.4712L50.9918 23.9995L50.9954 23.4638L50.998 22.8283L50.9995 22ZM29 31H21V9H29.1203C36.6391 9 41 13.5257 41 19.9371C41 26.2857 36.5789 31 29 31ZM11 31H17V9H11V31ZM30.1982 27.1445C30.7884 27.1275 31.4595 27.0505 32.1444 26.8774C32.2257 26.857 32.3091 26.8351 32.3947 26.8114C32.9234 26.6649 33.4947 26.4494 34.0833 26.0885C34.2265 26.0027 34.3673 25.9106 34.5049 25.8118L34.4999 25.8097C34.9185 25.5051 35.3427 25.1197 35.7637 24.6271C35.9364 24.4249 36.2326 23.9978 36.4011 23.6664C36.012 23.2539 35.4201 22.9147 34.865 22.6164L34.8058 22.5845L34.8057 22.5844C34.5485 22.4457 34.0833 22.1949 33.6487 22.025C33.6026 22.007 33.5544 21.9892 33.505 21.971C33.1298 21.8327 32.6915 21.671 32.6472 21.2253C32.613 20.8814 32.7873 20.6666 32.9949 20.4106C33.0448 20.3491 33.0966 20.2853 33.1479 20.2166C33.7538 19.4074 34.3241 18.3035 34.2211 16.809C34.1199 15.342 33.1812 14.2028 31.6098 14.027C31.4279 14.0067 31.2506 13.9979 31.0786 14.0004C30.9066 13.9979 30.7293 14.0067 30.5474 14.027C28.976 14.2028 28.0374 15.342 27.9362 16.809C27.8331 18.3035 28.4034 19.4074 29.0093 20.2166C29.0606 20.2853 29.1124 20.3491 29.1623 20.4106C29.37 20.6666 29.5442 20.8814 29.5101 21.2253C29.4658 21.671 29.0274 21.8327 28.6522 21.971L28.6521 21.9711C28.6028 21.9892 28.5546 22.007 28.5085 22.025C28.0739 22.1949 27.6087 22.4458 27.3514 22.5845L27.2923 22.6164C26.4685 23.0591 25.564 23.5917 25.3607 24.3202C25.1123 25.2114 24.9782 26.3301 25.0029 27.1445H26.4097C26.8016 27.1445 27.2055 27.1485 27.6165 27.1526H27.6166C28.4608 27.1609 29.335 27.1694 30.1982 27.1445Z" fill="white"/>
</svg>
