<svg width="16" height="16" viewBox="0 0 16 16" fill="none" xmlns="http://www.w3.org/2000/svg">
<path opacity="0.7" d="M15.5687 6.95923C15.5683 6.95886 15.5679 6.95837 15.5675 6.95801L9.04079 0.431519C8.76259 0.153198 8.39272 0 7.99928 0C7.60585 0 7.23598 0.153198 6.95766 0.431519L0.434343 6.95471C0.432145 6.95691 0.429826 6.95923 0.427751 6.96143C-0.143538 7.53601 -0.142562 8.46826 0.430558 9.04138C0.692399 9.30334 1.0381 9.45496 1.40785 9.47095C1.42299 9.47241 1.43813 9.47314 1.45339 9.47314H1.7134V14.2761C1.7134 15.2267 2.48683 16 3.43739 16H5.99086C6.24977 16 6.45961 15.79 6.45961 15.5312V11.7656C6.45961 11.3319 6.81252 10.9791 7.24623 10.9791H8.75234C9.18605 10.9791 9.53883 11.3319 9.53883 11.7656V15.5312C9.53883 15.79 9.74867 16 10.0076 16H12.5611C13.5117 16 14.2851 15.2267 14.2851 14.2761V9.47314H14.5263C14.9196 9.47314 15.2894 9.31995 15.5679 9.0415C16.1416 8.46753 16.1419 7.53357 15.5687 6.95923ZM14.9049 8.37866C14.8037 8.47986 14.6692 8.53564 14.5263 8.53564H13.8163C13.5574 8.53564 13.3476 8.74548 13.3476 9.00439V14.2761C13.3476 14.7097 12.9948 15.0625 12.5611 15.0625H10.4763V11.7656C10.4763 10.8151 9.70302 10.0416 8.75234 10.0416H7.24623C6.29555 10.0416 5.52211 10.8151 5.52211 11.7656V15.0625H3.43739C3.0038 15.0625 2.6509 14.7097 2.6509 14.2761V9.00439C2.6509 8.74548 2.44106 8.53564 2.18215 8.53564H1.48439C1.47707 8.53516 1.46987 8.53479 1.46242 8.53467C1.32277 8.53223 1.19179 8.47681 1.09364 8.37854C0.884904 8.1698 0.884904 7.83008 1.09364 7.62122C1.09377 7.62122 1.09377 7.62109 1.09389 7.62097L1.09425 7.62061L7.62074 1.09436C7.72182 0.993164 7.85622 0.9375 7.99928 0.9375C8.14223 0.9375 8.27663 0.993164 8.37782 1.09436L14.9028 7.61926C14.9038 7.62024 14.9049 7.62122 14.9059 7.62219C15.1135 7.8313 15.1132 8.17029 14.9049 8.37866Z" fill="white"/>
</svg>
