<svg width="15" height="16" viewBox="0 0 15 16" fill="none" xmlns="http://www.w3.org/2000/svg">
<path opacity="0.7" fill-rule="evenodd" clip-rule="evenodd" d="M2.8125 4.21875C2.8125 1.89253 4.70503 0 7.03125 0C9.35747 0 11.25 1.89253 11.25 4.21875C11.25 6.54497 9.35747 8.4375 7.03125 8.4375C4.70503 8.4375 2.8125 6.54497 2.8125 4.21875ZM3.75 4.21875C3.75 6.02803 5.22197 7.5 7.03125 7.5C8.84053 7.5 10.3125 6.02803 10.3125 4.21875C10.3125 2.40947 8.84053 0.9375 7.03125 0.9375C5.22197 0.9375 3.75 2.40947 3.75 4.21875ZM7.96875 9.375C9.59403 9.375 11.1252 10.0208 12.2802 11.1936C13.4295 12.3606 14.0625 13.901 14.0625 15.5312C14.0625 15.7901 13.8526 16 13.5938 16H0.46875C0.209875 16 0 15.7901 0 15.5312C0 13.901 0.632969 12.3606 1.78231 11.1936C2.93731 10.0208 4.4685 9.375 6.09375 9.375H7.96875ZM6.09375 10.3125C3.40659 10.3125 1.19297 12.4036 0.958125 15.0625H13.1044C12.8695 12.4036 10.6559 10.3125 7.96875 10.3125H6.09375Z" fill="white"/>
</svg>
