<svg width="38" height="38" viewBox="0 0 38 38" fill="none" xmlns="http://www.w3.org/2000/svg">
<circle cx="19" cy="19" r="19" fill="#6D51CE"/>
<path fill-rule="evenodd" clip-rule="evenodd" d="M14.8125 14.2188C14.8125 11.8925 16.705 10 19.0312 10C21.3575 10 23.25 11.8925 23.25 14.2188C23.25 16.545 21.3575 18.4375 19.0312 18.4375C16.705 18.4375 14.8125 16.545 14.8125 14.2188ZM15.75 14.2188C15.75 16.028 17.222 17.5 19.0312 17.5C20.8405 17.5 22.3125 16.028 22.3125 14.2188C22.3125 12.4095 20.8405 10.9375 19.0312 10.9375C17.222 10.9375 15.75 12.4095 15.75 14.2188ZM19.9688 19.375C21.594 19.375 23.1252 20.0208 24.2802 21.1936C25.4295 22.3606 26.0625 23.901 26.0625 25.5312C26.0625 25.7901 25.8526 26 25.5938 26H12.4688C12.2099 26 12 25.7901 12 25.5312C12 23.901 12.633 22.3606 13.7823 21.1936C14.9373 20.0208 16.4685 19.375 18.0938 19.375H19.9688ZM18.0938 20.3125C15.4066 20.3125 13.193 22.4036 12.9581 25.0625H25.1044C24.8695 22.4036 22.6559 20.3125 19.9688 20.3125H18.0938Z" fill="#fff"/>
</svg>
