<svg width="24" height="24" viewBox="0 0 24 24" fill="none" xmlns="http://www.w3.org/2000/svg">
 <g>
  <path d="M3 17C3 17.5523 3.44772 18 4 18C4.55228 18 5 17.5523 5 17V6C5 5.44772 4.55228 5 4 5C3.44772 5 3 5.44772 3 6V17Z" fill="#fff"/>
  <path d="M20.163 10.5925C20.1816 10.5944 20.2002 10.5968 20.2186 10.5997C20.7257 10.6809 21.0701 11.1522 20.9879 11.6525C20.8986 12.1133 20.4817 12.4408 20.0066 12.4234H10.8726L11.1516 12.5473C11.3233 12.6345 11.4802 12.7475 11.6167 12.8823L14.1839 15.4244C14.5226 15.7434 14.5795 16.2566 14.3187 16.6403C14.2941 16.672 14.2675 16.7021 14.239 16.7303C13.8762 17.0892 13.2873 17.09 12.9235 16.7321L8.2728 12.1435L8.27206 12.1428C7.90903 11.7842 7.90933 11.2031 8.2728 10.8449L12.9235 6.25632C12.9534 6.22792 12.9853 6.20154 13.0187 6.17734C13.4332 5.8779 14.0153 5.96668 14.3187 6.37561C14.5795 6.75937 14.5226 7.27258 14.1839 7.5916L11.612 10.1291C11.4598 10.2807 11.282 10.4049 11.0865 10.4962L10.8865 10.588H20.0577C20.0929 10.5875 20.128 10.589 20.163 10.5925Z" fill="#fff"/>
 </g>
</svg>
