<svg width="14" height="14" viewBox="0 0 16 16" fill="none" xmlns="http://www.w3.org/2000/svg">
<path fill-rule="evenodd" clip-rule="evenodd" d="M5.94269 3.86157C6.51899 3.62286 7.13666 3.5 7.76044 3.5C8.38421 3.5 9.00189 3.62286 9.57818 3.86157C10.1545 4.10028 10.6781 4.45016 11.1192 4.89124L11.9602 5.73225H10.7709C10.3567 5.73225 10.0209 6.06803 10.0209 6.48225C10.0209 6.89646 10.3567 7.23225 10.7709 7.23225H13.7709C13.8847 7.23225 13.9926 7.20688 14.0893 7.16149C14.1459 7.13497 14.1998 7.10099 14.2497 7.05955C14.2866 7.02886 14.3206 6.9947 14.3511 6.95756C14.3887 6.91174 14.4201 6.8625 14.4452 6.81099C14.4937 6.71172 14.5209 6.60016 14.5209 6.48225V3.48225C14.5209 3.06804 14.1851 2.73225 13.7709 2.73225C13.3567 2.73225 13.0209 3.06804 13.0209 3.48225V4.6716L12.1799 3.83058C11.5995 3.25022 10.9105 2.78985 10.1522 2.47575C9.39392 2.16166 8.5812 2 7.76044 2C6.93967 2 6.12695 2.16166 5.36866 2.47575C4.61038 2.78985 3.92138 3.25022 3.34102 3.83058C3.04813 4.12348 3.04813 4.59835 3.34102 4.89124C3.63391 5.18414 4.10879 5.18414 4.40168 4.89124C4.84276 4.45016 5.36639 4.10028 5.94269 3.86157ZM1.42951 9.33948C1.52669 9.29348 1.63534 9.26775 1.75 9.26775H4.75C5.16421 9.26775 5.5 9.60354 5.5 10.0177C5.5 10.432 5.16421 10.7677 4.75 10.7677H3.56067L4.40168 11.6088C4.84276 12.0498 5.36639 12.3997 5.94269 12.6384C6.51899 12.8771 7.13666 13 7.76044 13C8.38422 13 9.00189 12.8771 9.57818 12.6384C10.1545 12.3997 10.6781 12.0498 11.1192 11.6088C11.4121 11.3159 11.887 11.3159 12.1799 11.6088C12.4727 11.9017 12.4727 12.3765 12.1799 12.6694C11.5995 13.2498 10.9105 13.7102 10.1522 14.0243C9.39392 14.3383 8.5812 14.5 7.76044 14.5C6.93968 14.5 6.12695 14.3383 5.36867 14.0243C4.61038 13.7102 3.92139 13.2498 3.34102 12.6694L2.5 11.8284V13.0177C2.5 13.432 2.16421 13.7677 1.75 13.7677C1.33579 13.7677 1 13.432 1 13.0177V10.0177C1 9.89902 1.02759 9.78673 1.07671 9.68695C1.10132 9.63687 1.13185 9.58897 1.1683 9.54429C1.20011 9.50526 1.23577 9.46949 1.2747 9.43756C1.32295 9.39793 1.375 9.36524 1.42951 9.33948Z" fill="#4825C2"/>
</svg>
