<svg width="16" height="16" viewBox="0 0 16 16" fill="none" xmlns="http://www.w3.org/2000/svg">
<path opacity="0.7" fill-rule="evenodd" clip-rule="evenodd" d="M1.28097 0H14.719C15.4253 0 16 0.572299 16 1.27569V14.7243C16 15.4277 15.4253 16 14.719 16H1.28097C0.574667 16 0 15.4277 0 14.7242V1.27569C0 0.572299 0.574667 0 1.28097 0ZM14.719 14.98C14.8607 14.98 14.9758 14.8652 14.9758 14.7243V1.27569C14.9758 1.13477 14.8607 1.02002 14.719 1.02002H1.28097C1.13947 1.02002 1.02424 1.13477 1.02424 1.27569V14.7243C1.02424 14.8652 1.13947 14.98 1.28097 14.98H14.719ZM5.75887 2.49781C5.53015 2.33163 5.20981 2.38231 5.04364 2.61103L4.10782 3.89907L3.96152 3.71622C3.78481 3.49537 3.4626 3.45963 3.24162 3.63634C3.0209 3.81318 2.98516 4.13539 3.16187 4.35624L3.7276 5.06307C3.82482 5.1847 3.97205 5.25525 4.12742 5.25525L4.13929 5.25512C4.29906 5.25138 4.44777 5.17336 4.54165 5.04413L5.8721 3.21317C6.0384 2.98432 5.98772 2.66411 5.75887 2.49781ZM5.75887 6.5514C5.53015 6.38523 5.20981 6.43591 5.04364 6.66463L4.10782 7.95253L3.96152 7.76982C3.78481 7.54897 3.4626 7.51323 3.24175 7.68993C3.0209 7.86664 2.98516 8.18898 3.16186 8.4097L3.7276 9.11667C3.82495 9.23843 3.97205 9.30884 4.12742 9.30884L4.13929 9.30871C4.29906 9.30498 4.4479 9.22696 4.54179 9.09773L5.87223 7.26677C6.0384 7.03791 5.98772 6.71771 5.75887 6.5514ZM5.04364 10.9046C5.20981 10.6759 5.53015 10.6252 5.75887 10.7914C5.98772 10.9577 6.0384 11.2779 5.87223 11.5068L4.54179 13.3377C4.4479 13.467 4.29906 13.545 4.13929 13.5487L4.12742 13.5488C3.97205 13.5488 3.82495 13.4784 3.7276 13.3567L3.16186 12.6497C2.98516 12.429 3.0209 12.1066 3.24175 11.9299C3.4626 11.7532 3.78481 11.789 3.96152 12.0098L4.10782 12.1925L5.04364 10.9046ZM12.7352 3.16031H7.52092C7.23819 3.16031 7.0088 3.38957 7.0088 3.67243C7.0088 3.9553 7.23819 4.18455 7.52092 4.18455H12.7352C13.0181 4.18455 13.2473 3.9553 13.2473 3.67243C13.2473 3.38957 13.0181 3.16031 12.7352 3.16031ZM7.52092 7.35305H12.7352C13.0181 7.35305 13.2473 7.5823 13.2473 7.86517C13.2473 8.14803 13.0181 8.37729 12.7352 8.37729H7.52092C7.23819 8.37729 7.0088 8.14803 7.0088 7.86517C7.0088 7.5823 7.23819 7.35305 7.52092 7.35305ZM12.7352 11.593H7.52092C7.23819 11.593 7.0088 11.8223 7.0088 12.1052C7.0088 12.388 7.23819 12.6173 7.52092 12.6173H12.7352C13.0181 12.6173 13.2473 12.388 13.2473 12.1052C13.2473 11.8223 13.0181 11.593 12.7352 11.593Z" fill="white"/>
</svg>
