<svg width="14" height="14" viewBox="0 0 14 14" fill="none" xmlns="http://www.w3.org/2000/svg">
<path d="M2.1875 6.45312H11.8125V7.54688H2.1875V6.45312Z" fill="#6D51CE"/>
<path d="M9.51562 4.26562H2.1875V5.35938H9.51562V4.26562Z" fill="#6D51CE"/>
<path d="M2.1875 8.64062H8.42188V9.73438H2.1875V8.64062Z" fill="#6D51CE"/>
<path fill-rule="evenodd" clip-rule="evenodd" d="M1.64062 0H12.3594C13.264 0 14 0.735985 14 1.64062V12.3594C14 13.264 13.264 14 12.3594 14H1.64062C0.735984 14 0 13.264 0 12.3594V1.64062C0 0.735985 0.735984 0 1.64062 0ZM12.3594 12.9062C12.6609 12.9062 12.9062 12.6609 12.9062 12.3594V1.64062C12.9062 1.33908 12.6609 1.09375 12.3594 1.09375H1.64062C1.33908 1.09375 1.09375 1.33908 1.09375 1.64062V12.3594C1.09375 12.6609 1.33908 12.9062 1.64062 12.9062H12.3594Z" fill="#6D51CE"/>
</svg>
