<svg width="14" height="12" viewBox="0 0 14 12" fill="none" xmlns="http://www.w3.org/2000/svg">
<path d="M5.25 8.89168V3.55949L9.90506 6.22559L5.25 8.89168ZM6.34375 5.44634V7.00483L7.70432 6.22559L6.34375 5.44634ZM7 11.6875C5.21869 11.6875 3.65542 11.5711 2.65765 11.4734C1.39453 11.3498 0.388199 10.3865 0.210383 9.13091C0.070793 8.14504 0 7.16525 0 6.21875C0 5.27225 0.070793 4.29246 0.210383 3.30656C0.388199 2.05102 1.39453 1.08775 2.65765 0.964102C3.65542 0.86643 5.21869 0.75 7 0.75C8.78131 0.75 10.3446 0.86643 11.3424 0.964102C12.6055 1.08772 13.6118 2.05102 13.7896 3.30659C13.9292 4.29246 14 5.27225 14 6.21875C14 7.16525 13.9292 8.14503 13.7896 9.13094C13.6118 10.3865 12.6055 11.3498 11.3424 11.4734C10.3446 11.5711 8.78131 11.6875 7 11.6875ZM7 1.84375C5.26285 1.84375 3.73773 1.95734 2.76421 2.05268C2.00498 2.127 1.40016 2.70568 1.29336 3.45993C1.16091 4.3952 1.09375 5.32338 1.09375 6.21875C1.09375 7.11412 1.16091 8.0423 1.29336 8.97757C1.40016 9.73185 2.00498 10.3105 2.76421 10.3848C3.73773 10.4802 5.26285 10.5938 7 10.5938C8.73715 10.5938 10.2623 10.4802 11.2358 10.3848C11.995 10.3105 12.5998 9.73182 12.7066 8.97757C12.8391 8.0423 12.9062 7.11412 12.9062 6.21875C12.9062 5.32338 12.8391 4.3952 12.7066 3.45993C12.5998 2.70565 11.995 2.12698 11.2358 2.05266C10.2623 1.95734 8.73715 1.84375 7 1.84375Z" fill="#6D51CE"/>
</svg>
