<svg width="15" height="16" viewBox="0 0 15 16" fill="none" xmlns="http://www.w3.org/2000/svg">
<path d="M13.9251 6.05637H12.311C12.038 6.05637 11.8167 6.27767 11.8167 6.55066C11.8167 6.82362 12.038 7.04495 12.311 7.04495H12.7718V9.51634C12.7718 9.78889 12.55 10.0106 12.2775 10.0106H11.6982C11.4942 9.43531 10.9447 9.02208 10.3004 9.02208L7.82635 9.02202V8.03341L9.31183 8.03347C10.3112 8.03347 11.1242 7.22045 11.1242 6.22112V1.93735C11.1242 0.938021 10.3112 0.125 9.31183 0.125H5.35757C4.35824 0.125 3.54522 0.938021 3.54522 1.93735V6.22112C3.54522 7.22045 4.35824 8.03347 5.35757 8.03347L6.83779 8.03341V9.02196L4.36902 9.02202C3.72463 9.02202 3.17524 9.43528 2.9712 10.0106H2.39192C2.11937 10.0106 1.89762 9.78883 1.89762 9.51628V7.04489H2.35843C2.63139 7.04489 2.85272 6.82359 2.85272 6.5506C2.85272 6.27764 2.63142 6.05631 2.35843 6.05631H0.74429C0.471329 6.05631 0.25 6.27761 0.25 6.5506C0.25 6.82356 0.4713 7.04489 0.74429 7.04489H0.909044V9.51628C0.909044 10.3339 1.57425 10.9991 2.39189 10.9991H2.97117C3.17521 11.5744 3.72463 11.9877 4.36899 11.9877H6.84038V13.3058H3.38041C3.10745 13.3058 2.88612 13.5271 2.88612 13.8001V15.3807C2.88612 15.6537 3.10742 15.875 3.38041 15.875C3.65337 15.875 3.8747 15.6537 3.8747 15.3807V14.2943H6.84038V15.3807C6.84038 15.6537 7.06168 15.875 7.33467 15.875C7.60763 15.875 7.82896 15.6537 7.82896 15.3807V14.2943H10.7947V15.3807C10.7947 15.6537 11.016 15.875 11.289 15.875C11.5619 15.875 11.7833 15.6537 11.7833 15.3807V13.8001C11.7833 13.5271 11.562 13.3058 11.289 13.3058H7.82899V11.9877H10.3004C10.9448 11.9877 11.4942 11.5744 11.6982 10.9991H12.2775C13.0951 10.9991 13.7603 10.3339 13.7603 9.51628V7.04489H13.9251C14.198 7.04489 14.4194 6.82359 14.4194 6.5506C14.4194 6.27767 14.1981 6.05637 13.9251 6.05637ZM5.35757 7.04492C4.90333 7.04492 4.53377 6.67535 4.53377 6.22112V1.93735C4.53377 1.48311 4.90333 1.11355 5.35757 1.11355H9.3118C9.76604 1.11355 10.1356 1.48311 10.1356 1.93735V6.22112C10.1356 6.67535 9.76604 7.04492 9.3118 7.04492H8.81751H5.85186H5.35757ZM6.83779 8.03341V9.02196H7.82638V8.03341H6.83779ZM10.3004 10.9992H4.36902C4.09647 10.9992 3.87473 10.7774 3.87473 10.5049C3.87473 10.2323 4.09647 10.0106 4.36902 10.0106H5.85186H8.81754H10.3004C10.5729 10.0106 10.7947 10.2323 10.7947 10.5049C10.7947 10.7774 10.5729 10.9992 10.3004 10.9992Z" fill="white"/>
</svg>
